<?xml version="1.0" standalone="no"?>
<!DOCTYPE svg PUBLIC "-//W3C//DTD SVG 20010904//EN"
 "http://www.w3.org/TR/2001/REC-SVG-20010904/DTD/svg10.dtd">
<svg version="1.0" xmlns="http://www.w3.org/2000/svg"
 width="200.000000pt" height="218.000000pt" viewBox="0 0 200.000000 218.000000"
 preserveAspectRatio="xMidYMid meet">

<g transform="translate(0.000000,218.000000) scale(0.100000,-0.100000)"
fill="#000000" stroke="none">
<path d="M0 1090 l0 -1090 1000 0 1000 0 0 1090 0 1090 -1000 0 -1000 0 0
-1090z m248 464 c26 -14 53 -31 60 -36 9 -8 12 -77 12 -283 0 -247 -2 -273
-17 -286 -25 -20 -98 -59 -112 -59 -8 0 -11 98 -11 345 0 236 3 345 11 345 5
0 31 -12 57 -26z m1028 4 c64 -35 69 -54 69 -248 0 -165 -1 -177 -22 -206 -41
-57 -57 -59 -403 -59 -359 0 -355 -1 -392 81 -17 40 -19 63 -16 202 3 147 5
159 27 191 43 60 53 61 396 58 270 -2 314 -4 341 -19z m-199 -614 c195 -120
182 -400 -23 -502 -128 -64 -290 -16 -368 111 -23 38 -30 62 -34 121 -7 113
29 193 115 255 57 42 90 51 180 48 70 -3 89 -8 130 -33z m689 -511 c-4 -9 -28
-13 -86 -13 -72 0 -80 2 -80 19 0 11 20 33 49 54 27 20 64 54 82 77 l34 42 3
-83 c2 -45 1 -88 -2 -96z"/>
<path d="M734 1407 c-2 -7 -3 -58 -2 -113 l3 -99 140 0 c138 0 140 0 143 23 4
27 12 27 62 2 22 -11 44 -20 50 -20 6 0 10 39 10 105 0 118 -1 119 -65 80 -51
-31 -53 -31 -57 3 l-3 27 -138 3 c-108 2 -139 0 -143 -11z"/>
<path d="M956 839 c-84 -27 -86 -30 -86 -119 l0 -78 -35 -6 c-70 -13 -83 -96
-16 -96 54 0 70 26 73 115 l3 79 45 17 c25 9 57 19 73 23 27 6 27 6 27 -49 0
-54 -1 -55 -28 -55 -30 0 -62 -26 -62 -51 0 -41 66 -53 100 -19 19 19 20 31
18 138 -3 117 -3 117 -28 119 -14 1 -52 -7 -84 -18z"/>
</g>
</svg>
